<svg xmlns="http://www.w3.org/2000/svg" xmlns:xlink="http://www.w3.org/1999/xlink" width="512" height="512" x="0" y="0" viewBox="0 0 64 64" style="enable-background:new 0 0 512 512" xml:space="preserve"><g><path d="m4.443 38.088 3.082 2.067a.999.999 0 0 0 1.195-.06 29.003 29.003 0 0 0 2.397-2.242l2.48 1.004a2.747 2.747 0 0 0 .613.943 2.742 2.742 0 0 0 1.914.804 3.162 3.162 0 0 0 .91 2.02 3.171 3.171 0 0 0 2.172.924 3.167 3.167 0 0 0 3.178 3.102c.03 0 .06-.008.091-.009a3.162 3.162 0 0 0 .909 2.013 3.194 3.194 0 0 0 4.51 0l.69-.691 2.392.707a4.353 4.353 0 0 0 1.238.18 4.4 4.4 0 0 0 3.542-1.79l.38-.516.008.002a4.24 4.24 0 0 0 4.905-2.264l.013-.026.286.082a4.629 4.629 0 0 0 1.28.18 4.698 4.698 0 0 0 4.29-2.79l.123-.279a3.537 3.537 0 0 0 3.069-2.137 3.446 3.446 0 0 0 .138-.441l2.666-1.024a31.731 31.731 0 0 0 2.277 2.23 1.002 1.002 0 0 0 1.191.096l3.15-1.975a1 1 0 0 0-1.063-1.695l-2.51 1.574a28.753 28.753 0 0 1-8.731-15.337l10.277-6.48a1 1 0 0 0-1.066-1.692L45.604 21.4a.998.998 0 0 0-.46.953 29.024 29.024 0 0 0 6.367 13.89l-1.332.512a3.525 3.525 0 0 0-1.883-2.067l-8.837-3.945a3.867 3.867 0 0 1-2.217-2.79l-.415-2.132.423-.351a1 1 0 1 0-1.28-1.537l-1.881 1.564a3.342 3.342 0 0 0-.934 1.207 12.486 12.486 0 0 1-2.626 3.27.738.738 0 0 1-1.233-.63l.568-4.703a1.756 1.756 0 0 1 .631-1.15l4.358-3.579a1.763 1.763 0 0 1 1.87-.23l6.318 2.988a1 1 0 0 0 .855-1.809l-6.318-2.988a3.78 3.78 0 0 0-3.995.494l-.95.78-.808-.29a7.295 7.295 0 0 0-5.754.366l-5.834 2.973a1 1 0 1 0 .909 1.782l5.833-2.974a5.284 5.284 0 0 1 3.82-.35l-1.573 1.291a3.745 3.745 0 0 0-1.347 2.455l-.568 4.704a2.738 2.738 0 0 0 2.713 3.067c.09 0 .18-.005.27-.014a2.708 2.708 0 0 0 1.599-.72 14.068 14.068 0 0 0 3.087-3.915 1.17 1.17 0 0 1 .107-.174l.192.988a5.867 5.867 0 0 0 3.365 4.233l8.837 3.946a1.541 1.541 0 0 1-1.063 2.885l-8.592-2.528a1 1 0 1 0-.564 1.918l7.748 2.293a2.69 2.69 0 0 1-3.111 1.333l-6.961-1.996a1 1 0 1 0-.551 1.922l4.703 1.35a2.239 2.239 0 0 1-2.434.92l-4.22-1.116a.988.988 0 0 0-.939.26c0-.011.003-.021.003-.032a3.165 3.165 0 0 0-.93-2.254 3.245 3.245 0 0 0-2.888-.84 3.158 3.158 0 0 0-3.968-2.405 3.145 3.145 0 0 0-3.614-2.341 2.73 2.73 0 0 0-.71-1.263 2.769 2.769 0 0 0-3.912 0L14.21 35.89a2.743 2.743 0 0 0-.564.83l-1.109-.449a26.381 26.381 0 0 0 6.097-13.963.998.998 0 0 0-.465-.907L7.334 14.568a1 1 0 0 0-1.066 1.692l10.304 6.498a25.786 25.786 0 0 1-8.56 15.315l-2.455-1.645a1 1 0 1 0-1.114 1.66Zm26.126 7.89a3.151 3.151 0 0 0 .714-1.107.984.984 0 0 0 .641.559l2.122.56a2.394 2.394 0 0 1-2.503.762l-1.349-.399Zm-3.095-3.094a1.225 1.225 0 0 1 1.681 0 1.195 1.195 0 0 1 0 1.68L26.48 47.24a1.189 1.189 0 0 1-1.68-1.681Zm-3.748-2.444a1.189 1.189 0 0 1 1.682 1.681l-2.184 2.184a1.224 1.224 0 0 1-1.68 0h-.001a1.195 1.195 0 0 1 0-1.681Zm-3.929-2.262a1.19 1.19 0 0 1 1.682 1.681l-1.35 1.351a1.189 1.189 0 0 1-1.681-1.682Zm-4.172-.875 1.267-1.268a.766.766 0 0 1 1.083 1.083l-1.268 1.268a.787.787 0 0 1-1.082 0 .771.771 0 0 1 0-1.083Z" fill="#002043" opacity="1" data-original="#000000"></path></g></svg>