<svg xmlns="http://www.w3.org/2000/svg" xmlns:xlink="http://www.w3.org/1999/xlink" width="512" height="512" x="0" y="0" viewBox="0 0 48 48" style="enable-background:new 0 0 512 512" xml:space="preserve" class=""><g><path d="M13 45H5a2.002 2.002 0 0 1-2-2v-4a2.002 2.002 0 0 1 2-2h8a2.002 2.002 0 0 1 2 2v4a2.002 2.002 0 0 1-2 2Zm-8-6v4h8.001L13 39ZM28 45h-8a2.002 2.002 0 0 1-2-2v-4a2.002 2.002 0 0 1 2-2h8a2.002 2.002 0 0 1 2 2v4a2.002 2.002 0 0 1-2 2Zm-8-6v4h8.001L28 39ZM43 45h-8a2.002 2.002 0 0 1-2-2v-4a2.002 2.002 0 0 1 2-2h8a2.002 2.002 0 0 1 2 2v4a2.002 2.002 0 0 1-2 2Zm-8-6v4h8.001L43 39Z" fill="#002043" opacity="1" data-original="#000000" class=""></path><path d="M39 39a1 1 0 0 1-1-1v-5H10v5a1 1 0 0 1-2 0v-5a2.002 2.002 0 0 1 2-2h28a2.002 2.002 0 0 1 2 2v5a1 1 0 0 1-1 1Z" fill="#002043" opacity="1" data-original="#000000" class=""></path><path d="M24 39a1 1 0 0 1-1-1V26a1 1 0 0 1 2 0v12a1 1 0 0 1-1 1Z" fill="#002043" opacity="1" data-original="#000000" class=""></path><path d="M34 27H14a3.003 3.003 0 0 1-3-3V12.276a2.983 2.983 0 0 1 1.413-2.546l10-6.233a3.02 3.02 0 0 1 3.174 0l10 6.233A2.983 2.983 0 0 1 37 12.276V24a3.003 3.003 0 0 1-3 3ZM24 5.042a.998.998 0 0 0-.528.152l-10 6.233a.993.993 0 0 0-.472.849V24a1.001 1.001 0 0 0 1 1h20a1.001 1.001 0 0 0 1-1V12.276a.993.993 0 0 0-.472-.849l-10-6.233A.998.998 0 0 0 24 5.042Z" fill="#002043" opacity="1" data-original="#000000" class=""></path><path d="M30.5 19h-13a1 1 0 0 1 0-2h13a1 1 0 0 1 0 2Z" fill="#002043" opacity="1" data-original="#000000" class=""></path><path d="M30.5 27h-13a1 1 0 0 1-1-1V14a1 1 0 0 1 1-1h13a1 1 0 0 1 1 1v12a1 1 0 0 1-1 1Zm-12-2h11V15h-11Z" fill="#002043" opacity="1" data-original="#000000" class=""></path></g></svg>