<svg xmlns="http://www.w3.org/2000/svg" xmlns:xlink="http://www.w3.org/1999/xlink" width="512" height="512" x="0" y="0" viewBox="0 0 512 512" style="enable-background:new 0 0 512 512" xml:space="preserve" class=""><g><path d="M452 128.91h-70v-25.333c0-33.084-26.916-60-60-60H60c-33.084 0-60 26.916-60 60v166c0 33.084 26.916 60 60 60h21v53.514l85.333-48.762v20.581c0 33.084 26.916 60 60 60H337.35L431 468.424V414.91h21c33.084 0 60-26.916 60-60v-166c0-33.084-26.916-60-60-60zM60 299.576c-16.542 0-30-13.458-30-30v-166c0-16.542 13.458-30 30-30h262c16.542 0 30 13.458 30 30v166c0 16.542-13.458 30-30 30H166.683L111 331.395v-31.819zm422 55.334c0 16.542-13.458 30-30 30h-51v31.819l-55.684-31.819H226.333c-16.542 0-30-13.458-30-30v-25.333H322c33.084 0 60-26.916 60-60V158.91h70c16.542 0 30 13.458 30 30z" fill="#002043" opacity="1" data-original="#000000" class=""></path><path d="M165.513 228.052h-47.594v-26.476h44.084v-30h-44.084V145.1h47.594v-30H87.919v142.952h77.594zM196.828 149.991c-2.093 14.579 5.901 30.369 16.495 36.602s18.462 8.425 36.164 14.955c3.761 1.387 15.919 6.546 14.466 14.683-1.083 6.067-8.551 12.342-19.174 12.342-11.122 0-21.816-4.475-28.609-11.97l-22.229 20.146c12.57 13.87 31.1 21.825 50.839 21.825 24.388 0 44.872-15.59 48.707-37.069 2.891-16.193-4.422-37.333-33.618-48.102-13.873-5.117-26.798-10.688-30.9-12.482-2.727-2.255-2.631-5.363-2.444-6.666.268-1.869 1.638-6.441 8.54-8.521 15.814-4.763 30.542 7.004 30.688 7.123l-.091-.075 19.304-22.965c-1.088-.915-27.026-22.306-58.554-12.808-16.02 4.825-27.356 17.463-29.584 32.982z" fill="#002043" opacity="1" data-original="#000000" class=""></path></g></svg>